<?xml version="1.0" encoding="utf-8"?>
<svg width="32px" height="32px" viewBox="0 0 32 32" version="1.1" xmlns:xlink="http://www.w3.org/1999/xlink" xmlns="http://www.w3.org/2000/svg">
  <desc>Created with Lunacy</desc>
  <defs>
    <path d="M0 0L32 0L32 32L0 32L0 0Z" id="path_1" />
    <clipPath id="mask_1">
      <use xlink:href="#path_1" />
    </clipPath>
  </defs>
  <g id="Settings-icon">
    <path d="M0 0L32 0L32 32L0 32L0 0Z" id="Background" fill="none" fill-rule="evenodd" stroke="none" />
    <g clip-path="url(#mask_1)">
      <path d="M9.84375 0L9.6875 0.8125L9.09375 3.78125C8.14063 4.15625 7.28125 4.68359 6.5 5.3125L3.59375 4.3125L2.8125 4.0625L2.40625 4.78125L0.40625 8.21875L0 8.9375L0.59375 9.46875L2.84375 11.4375C2.76172 11.9492 2.65625 12.4609 2.65625 13C2.65625 13.5391 2.76172 14.0508 2.84375 14.5625L0.59375 16.5313L0 17.0625L0.40625 17.7813L2.40625 21.2188L2.8125 21.9375L3.59375 21.6875L6.5 20.6875C7.28125 21.3164 8.14063 21.8438 9.09375 22.2188L9.6875 25.1875L9.84375 26L15.4688 26L15.625 25.1875L16.2188 22.2188C17.1719 21.8438 18.0313 21.3164 18.8125 20.6875L21.7188 21.6875L22.5 21.9375L22.9063 21.2188L24.9063 17.7813L25.3125 17.0625L24.7188 16.5313L22.4688 14.5625C22.5508 14.0508 22.6563 13.5391 22.6563 13C22.6563 12.4609 22.5508 11.9492 22.4688 11.4375L24.7188 9.46875L25.3125 8.9375L24.9063 8.21875L22.9063 4.78125L22.5 4.0625L21.7188 4.3125L18.8125 5.3125C18.0313 4.68359 17.1719 4.15625 16.2188 3.78125L15.625 0.8125L15.4688 0L9.84375 0ZM13.8438 2L11.4688 2L10.9688 4.59375L10.8438 5.1875L10.2813 5.375C9.14453 5.73047 8.11328 6.33203 7.25 7.125L6.8125 7.53125L6.25 7.34375L3.71875 6.46875L2.53125 8.5L4.53125 10.2813L5 10.6563L4.84375 11.25C4.71484 11.8203 4.65625 12.4023 4.65625 13C4.65625 13.5977 4.71484 14.1797 4.84375 14.75L5 15.3438L4.53125 15.7188L2.53125 17.5L3.71875 19.5313L6.25 18.6563L6.8125 18.4688L7.25 18.875C8.11328 19.668 9.14453 20.2695 10.2813 20.625L10.8438 20.8125L10.9688 21.4063L11.4688 24L13.8438 24L14.3438 21.4063L14.4688 20.8125L15.0313 20.625C16.168 20.2695 17.1992 19.668 18.0625 18.875L18.5 18.4688L19.0625 18.6563L21.5938 19.5313L22.7813 17.5L20.7813 15.7188L20.3438 15.3438L20.4688 14.75C20.5977 14.1797 20.6563 13.5977 20.6563 13C20.6563 12.4023 20.5977 11.8203 20.4688 11.25L20.3125 10.6563L20.7813 10.2813L22.7813 8.5L21.5938 6.46875L19.0625 7.34375L18.5 7.53125L18.0625 7.125C17.1992 6.33203 16.168 5.73047 15.0313 5.375L14.4688 5.1875L14.3438 4.59375L13.8438 2ZM12.6563 8C9.90625 8 7.65625 10.25 7.65625 13C7.65625 15.75 9.90625 18 12.6563 18C15.4063 18 17.6563 15.75 17.6563 13C17.6563 10.25 15.4063 8 12.6563 8ZM15.6563 13C15.6563 11.332 14.3242 10 12.6563 10C10.9883 10 9.65625 11.332 9.65625 13C9.65625 14.668 10.9883 16 12.6563 16C14.3242 16 15.6563 14.668 15.6563 13Z" transform="translate(3.34375 3)" id="Shape" fill="#FFFFFF" fill-rule="evenodd" stroke="none" />
    </g>
  </g>
</svg>